<?xml version="1.0" encoding="UTF-8"?><svg xmlns="http://www.w3.org/2000/svg" width="8.99in" height="1.08in" viewBox="0 0 647.23 78.04"><g id="a"><rect x="-4.48" width="569.63" height="59.3" fill="none"/><path d="M58.35,47.74h4.75c2.71,0,4.07.93,4.07,2.78,0,1.33-.47,2.36-1.42,3.11-.95.74-2.28,1.11-4,1.11h-5.57c-2.03,0-3.6-.42-4.7-1.27s-1.66-2.07-1.66-3.65c0-1.02.41-2.5,1.23-4.45l7.53-17.64-5.65,6.06c-1.35,1.46-2.63,2.2-3.84,2.2-1.58,0-2.61-1.08-3.08-3.25l-.82-3.63-7.15,17.64c-2.46,6.05-4.34,10.17-5.62,12.35-1.29,2.18-2.96,4.07-5.01,5.67-2.97,2.3-6.38,3.46-10.22,3.46-4.1,0-7.43-1.29-9.99-3.88-2.56-2.59-3.84-5.96-3.84-10.12,0-5.45,2.01-10.24,6.04-14.38,2.17-2.21,4.87-3.99,8.12-5.35,3.24-1.36,6.44-2.04,9.58-2.04,1.6,0,2.88.34,3.84,1.03.96.68,1.44,1.59,1.44,2.72,0,1.19-.51,2.16-1.52,2.9-.59.43-1.72.72-3.4.88-3.89.35-7.02,1.24-9.4,2.67-1.97,1.19-3.54,2.74-4.7,4.66-1.16,1.91-1.74,3.92-1.74,6.01,0,2.23.57,3.98,1.7,5.26,1.13,1.28,2.69,1.92,4.66,1.92,2.36,0,4.42-1.01,6.17-3.03s3.67-5.59,5.76-10.71l11.63-28.62c1.02-2.52,2.38-3.78,4.1-3.78,1.09,0,1.96.35,2.59,1.05s1.19,1.93,1.66,3.69l1.79,6.74,8.79-8.64c1.93-1.89,3.74-2.84,5.42-2.84,1.17,0,2.16.36,2.97,1.07.81.71,1.22,1.58,1.22,2.59,0,.64-.16,1.35-.47,2.11l-.67,1.64-10.55,25.99Z" fill="#dc2727"/><path d="M90.4,48.36h3.22c2.46,0,3.69.86,3.69,2.58,0,1.19-.44,2.12-1.32,2.8s-2.09,1.01-3.63,1.01h-3.75c-1.68,0-2.82-.65-3.43-1.96-1.46,1.31-2.88,1.96-4.25,1.96h-3.34c-2.15,0-3.88-.77-5.2-2.3-1.32-1.53-1.98-3.54-1.98-6.02,0-3.75,1.29-7.1,3.88-10.06s5.51-4.44,8.77-4.44c2.5,0,4.33.87,5.48,2.61.98-1.46,2.26-2.2,3.84-2.2.86,0,1.58.27,2.15.82.58.55.86,1.22.86,2.02,0,.55-.16,1.2-.47,1.96l-.32.79-4.22,10.43ZM79.76,48.5h.73c1.6,0,2.67-.65,3.19-1.96l2.05-5.07c.27-.66.41-1.22.41-1.67,0-.53-.26-.99-.78-1.38-.52-.39-1.14-.59-1.86-.59-1.43,0-2.81.83-4.16,2.49-1.35,1.66-2.02,3.38-2.02,5.16,0,2.01.81,3.02,2.43,3.02Z" fill="#dc2727"/><path d="M105.75,38.75l-1,2.46c-.9,2.19-2.07,3.28-3.52,3.28-.88,0-1.61-.26-2.2-.79s-.88-1.18-.88-1.96c0-.45.21-1.21.64-2.29l3.31-8.17c.8-1.97,1.93-2.96,3.4-2.96s2.33.68,2.67,2.05l.23.91c.12.47.29.76.53.88s.81.18,1.73.18h6.86c2.56,0,3.84.9,3.84,2.7,0,2.48-1.62,3.72-4.86,3.72l-.32.29c-3.11,2.97-4.66,5.26-4.66,6.88s.9,2.43,2.7,2.43h3.69c2.48,0,3.72.86,3.72,2.58,0,1.21-.43,2.15-1.3,2.81-.87.66-2.08,1-3.65,1h-5.74c-1.95,0-3.55-.67-4.79-2.02s-1.86-3.1-1.86-5.24c0-1.37.33-2.7,1-3.98s1.84-2.87,3.52-4.75h-3.05Z" fill="#dc2727"/><path d="M132.67,40.33l-.56,1.35c-.86,1.93-2.08,2.9-3.66,2.9-.8,0-1.52-.28-2.15-.83s-.95-1.2-.95-1.92c0-.68.28-1.59.85-2.72l3.9-7.91c.96-1.89,2.15-2.84,3.57-2.84.76,0,1.42.25,1.96.75s.82,1.09.82,1.77c0,.18-.06.56-.18,1.14-.08.43-.12.81-.12,1.14,0,1.23.46,2.49,1.38,3.78l1.67,2.31c1.7,2.36,2.55,4.65,2.55,6.86,0,2.46-.92,4.52-2.75,6.17-1.84,1.65-4.12,2.48-6.86,2.48h-6.12c-2.48,0-3.72-.86-3.72-2.58,0-1.19.44-2.12,1.32-2.8s2.09-1.01,3.63-1.01h3.4c2.71,0,4.07-.99,4.07-2.96,0-.72-.25-1.57-.76-2.55l-1.29-2.52Z" fill="#dc2727"/><path d="M210.69,47.74h4.75c2.71,0,4.07.93,4.07,2.78,0,1.33-.47,2.36-1.42,3.11-.95.74-2.28,1.11-4,1.11h-5.57c-2.03,0-3.6-.42-4.7-1.27s-1.66-2.07-1.66-3.65c0-1.02.41-2.5,1.23-4.45l7.53-17.64-5.65,6.06c-1.35,1.46-2.63,2.2-3.84,2.2-1.58,0-2.61-1.08-3.08-3.25l-.82-3.63-7.15,17.64c-2.46,6.05-4.34,10.17-5.62,12.35-1.29,2.18-2.96,4.07-5.01,5.67-2.97,2.3-6.38,3.46-10.22,3.46-4.1,0-7.43-1.29-9.99-3.88-2.56-2.59-3.84-5.96-3.84-10.12,0-5.45,2.01-10.24,6.04-14.38,2.17-2.21,4.87-3.99,8.12-5.35,3.24-1.36,6.44-2.04,9.58-2.04,1.6,0,2.88.34,3.84,1.03.96.68,1.44,1.59,1.44,2.72,0,1.19-.51,2.16-1.52,2.9-.59.43-1.72.72-3.4.88-3.89.35-7.02,1.24-9.4,2.67-1.97,1.19-3.54,2.74-4.7,4.66-1.16,1.91-1.74,3.92-1.74,6.01,0,2.23.57,3.98,1.7,5.26,1.13,1.28,2.69,1.92,4.66,1.92,2.36,0,4.42-1.01,6.17-3.03s3.67-5.59,5.76-10.71l11.63-28.62c1.02-2.52,2.38-3.78,4.1-3.78,1.09,0,1.96.35,2.59,1.05s1.19,1.93,1.66,3.69l1.79,6.74,8.79-8.64c1.93-1.89,3.74-2.84,5.42-2.84,1.17,0,2.16.36,2.97,1.07.81.71,1.22,1.58,1.22,2.59,0,.64-.16,1.35-.47,2.11l-.67,1.64-10.55,25.99Z" fill="#dc2727"/><path d="M242.74,48.36h3.22c2.46,0,3.69.86,3.69,2.58,0,1.19-.44,2.12-1.32,2.8s-2.09,1.01-3.63,1.01h-3.75c-1.68,0-2.82-.65-3.43-1.96-1.46,1.31-2.88,1.96-4.25,1.96h-3.34c-2.15,0-3.88-.77-5.2-2.3-1.32-1.53-1.98-3.54-1.98-6.02,0-3.75,1.29-7.1,3.88-10.06s5.51-4.44,8.77-4.44c2.5,0,4.33.87,5.48,2.61.98-1.46,2.26-2.2,3.84-2.2.86,0,1.58.27,2.15.82.58.55.86,1.22.86,2.02,0,.55-.16,1.2-.47,1.96l-.32.79-4.22,10.43ZM232.11,48.5h.73c1.6,0,2.67-.65,3.19-1.96l2.05-5.07c.27-.66.41-1.22.41-1.67,0-.53-.26-.99-.78-1.38-.52-.39-1.14-.59-1.86-.59-1.43,0-2.81.83-4.16,2.49-1.35,1.66-2.02,3.38-2.02,5.16,0,2.01.81,3.02,2.43,3.02Z" fill="#dc2727"/><path d="M265.42,32.33h.91c2.48,0,3.72.87,3.72,2.61,0,1.19-.44,2.12-1.32,2.78-.88.66-2.09,1-3.63,1h-2.14l-3.93,9.64h3.28c2.48,0,3.72.87,3.72,2.61,0,1.19-.43,2.12-1.3,2.78-.87.66-2.08,1-3.65,1h-5.24c-1.48,0-2.66-.34-3.53-1.03-.87-.68-1.3-1.61-1.3-2.78,0-.72.18-1.52.53-2.4l.56-1.29,3.46-8.53h-.44c-2.19,0-3.28-.85-3.28-2.55,0-1.21.43-2.15,1.3-2.83s2.08-1.01,3.65-1.01h1.35l1.55-3.84.32-.79c.92-2.17,2.36-3.25,4.34-3.25.8,0,1.49.27,2.07.81.58.54.86,1.19.86,1.95s-.25,1.68-.76,2.81l-1.08,2.31Z" fill="#dc2727"/><path d="M275.85,46.16c0,1.46,1.1,2.2,3.31,2.2h8.7c2.46,0,3.69.87,3.69,2.61,0,1.19-.43,2.12-1.3,2.78-.87.66-2.08,1-3.65,1h-8.29c-3.09,0-5.43-.76-7.05-2.29s-2.42-3.75-2.42-6.68c0-3.77,1.27-7.02,3.82-9.76,2.55-2.73,5.58-4.1,9.1-4.1,2.56,0,4.61.67,6.17,2.01,1.55,1.34,2.33,3.1,2.33,5.29,0,2.64-1.07,4.59-3.22,5.86-1.19.72-2.97,1.08-5.33,1.08h-5.86ZM277.25,40.83h3.22c2.09,0,3.11-.46,3.05-1.38-.06-1.04-.73-1.55-2.02-1.55-1.8,0-3.21.98-4.25,2.93Z" fill="#dc2727"/><path d="M299.99,38.75l-1,2.46c-.9,2.19-2.07,3.28-3.52,3.28-.88,0-1.61-.26-2.2-.79s-.88-1.18-.88-1.96c0-.45.21-1.21.64-2.29l3.31-8.17c.8-1.97,1.93-2.96,3.4-2.96s2.33.68,2.67,2.05l.23.91c.12.47.29.76.53.88s.81.18,1.73.18h6.86c2.56,0,3.84.9,3.84,2.7,0,2.48-1.62,3.72-4.86,3.72l-.32.29c-3.11,2.97-4.66,5.26-4.66,6.88s.9,2.43,2.7,2.43h3.69c2.48,0,3.72.86,3.72,2.58,0,1.21-.43,2.15-1.3,2.81-.87.66-2.08,1-3.65,1h-5.74c-1.95,0-3.55-.67-4.79-2.02s-1.86-3.1-1.86-5.24c0-1.37.33-2.7,1-3.98s1.84-2.87,3.52-4.75h-3.05Z" fill="#dc2727"/><path d="M325.3,48.36h3.31c2.46,0,3.69.87,3.69,2.61,0,1.19-.43,2.12-1.3,2.78-.87.66-2.08,1-3.65,1h-4.66c-1.72,0-3.07-.35-4.06-1.05s-1.48-1.66-1.48-2.87c0-.64.21-1.46.62-2.46l4.83-11.89.32-.82c.9-2.21,2.34-3.31,4.34-3.31.82,0,1.53.27,2.12.82.6.55.89,1.2.89,1.96,0,.63-.26,1.58-.79,2.87l-4.19,10.37ZM329.17,22.99c1.13,0,2.09.4,2.89,1.19s1.19,1.75,1.19,2.89-.4,2.09-1.19,2.89-1.75,1.19-2.89,1.19-2.09-.4-2.89-1.19-1.19-1.75-1.19-2.89.4-2.09,1.19-2.89,1.75-1.19,2.89-1.19Z" fill="#dc2727"/><path d="M353.43,48.36h3.22c2.46,0,3.69.86,3.69,2.58,0,1.19-.44,2.12-1.32,2.8s-2.09,1.01-3.63,1.01h-3.75c-1.68,0-2.82-.65-3.43-1.96-1.46,1.31-2.88,1.96-4.25,1.96h-3.34c-2.15,0-3.88-.77-5.2-2.3-1.32-1.53-1.98-3.54-1.98-6.02,0-3.75,1.29-7.1,3.88-10.06s5.51-4.44,8.77-4.44c2.5,0,4.33.87,5.48,2.61.98-1.46,2.26-2.2,3.84-2.2.86,0,1.58.27,2.15.82.58.55.86,1.22.86,2.02,0,.55-.16,1.2-.47,1.96l-.32.79-4.22,10.43ZM342.79,48.5h.73c1.6,0,2.67-.65,3.19-1.96l2.05-5.07c.27-.66.41-1.22.41-1.67,0-.53-.26-.99-.78-1.38-.52-.39-1.14-.59-1.86-.59-1.43,0-2.81.83-4.16,2.49-1.35,1.66-2.02,3.38-2.02,5.16,0,2.01.81,3.02,2.43,3.02Z" fill="#dc2727"/><path d="M428.28,47.74h4.75c2.71,0,4.07.93,4.07,2.78,0,1.33-.47,2.36-1.42,3.11-.95.74-2.28,1.11-4,1.11h-5.57c-2.03,0-3.6-.42-4.7-1.27s-1.66-2.07-1.66-3.65c0-1.02.41-2.5,1.23-4.45l7.53-17.64-5.65,6.06c-1.35,1.46-2.63,2.2-3.84,2.2-1.58,0-2.61-1.08-3.08-3.25l-.82-3.63-7.15,17.64c-2.46,6.05-4.34,10.17-5.62,12.35-1.29,2.18-2.96,4.07-5.01,5.67-2.97,2.3-6.38,3.46-10.22,3.46-4.1,0-7.43-1.29-9.99-3.88-2.56-2.59-3.84-5.96-3.84-10.12,0-5.45,2.01-10.24,6.04-14.38,2.17-2.21,4.87-3.99,8.12-5.35,3.24-1.36,6.44-2.04,9.58-2.04,1.6,0,2.88.34,3.84,1.03.96.68,1.44,1.59,1.44,2.72,0,1.19-.51,2.16-1.52,2.9-.59.43-1.72.72-3.4.88-3.89.35-7.02,1.24-9.4,2.67-1.97,1.19-3.54,2.74-4.7,4.66-1.16,1.91-1.74,3.92-1.74,6.01,0,2.23.57,3.98,1.7,5.26,1.13,1.28,2.69,1.92,4.66,1.92,2.36,0,4.42-1.01,6.17-3.03s3.67-5.59,5.76-10.71l11.63-28.62c1.02-2.52,2.38-3.78,4.1-3.78,1.09,0,1.96.35,2.59,1.05s1.19,1.93,1.66,3.69l1.79,6.74,8.79-8.64c1.93-1.89,3.74-2.84,5.42-2.84,1.17,0,2.16.36,2.97,1.07.81.71,1.22,1.58,1.22,2.59,0,.64-.16,1.35-.47,2.11l-.67,1.64-10.55,25.99Z" fill="#dc2727"/><path d="M447.35,46.16c0,1.46,1.1,2.2,3.31,2.2h8.7c2.46,0,3.69.87,3.69,2.61,0,1.19-.43,2.12-1.3,2.78-.87.66-2.08,1-3.65,1h-8.29c-3.09,0-5.43-.76-7.05-2.29s-2.42-3.75-2.42-6.68c0-3.77,1.27-7.02,3.82-9.76,2.55-2.73,5.58-4.1,9.1-4.1,2.56,0,4.61.67,6.17,2.01,1.55,1.34,2.33,3.1,2.33,5.29,0,2.64-1.07,4.59-3.22,5.86-1.19.72-2.97,1.08-5.33,1.08h-5.86ZM448.76,40.83h3.22c2.09,0,3.11-.46,3.05-1.38-.06-1.04-.73-1.55-2.02-1.55-1.8,0-3.21.98-4.25,2.93Z" fill="#dc2727"/><path d="M484.3,48.36h3.34c2.48,0,3.72.87,3.72,2.61,0,1.19-.44,2.12-1.32,2.78-.88.66-2.09,1-3.63,1h-3.96c-1.52,0-2.64-.62-3.34-1.88-1.25,1.25-2.59,1.88-4.01,1.88h-3.72c-2.17,0-3.9-.74-5.2-2.23-1.3-1.48-1.95-3.46-1.95-5.92,0-3.77,1.28-7.16,3.85-10.17,2.57-3.01,5.45-4.51,8.66-4.51,2.36,0,4.25.85,5.65,2.55l6.53-16.03c1.11-2.73,2.67-4.1,4.66-4.1.84,0,1.55.27,2.14.81.59.54.88,1.2.88,1.98,0,.61-.15,1.29-.44,2.05l-.35.79-11.51,28.39ZM473.57,48.5h1.11c1.35,0,2.24-.54,2.67-1.61l2.2-5.42c.27-.66.41-1.17.41-1.52,0-.59-.25-1.08-.75-1.49s-1.12-.62-1.86-.62c-1.52,0-2.94.85-4.26,2.55s-1.98,3.54-1.98,5.51c0,1.74.82,2.61,2.46,2.61Z" fill="#dc2727"/><path d="M500.67,48.36h3.31c2.46,0,3.69.87,3.69,2.61,0,1.19-.43,2.12-1.3,2.78-.87.66-2.08,1-3.65,1h-4.66c-1.72,0-3.07-.35-4.06-1.05s-1.48-1.66-1.48-2.87c0-.64.21-1.46.62-2.46l4.83-11.89.32-.82c.9-2.21,2.34-3.31,4.34-3.31.82,0,1.53.27,2.12.82.6.55.89,1.2.89,1.96,0,.63-.26,1.58-.79,2.87l-4.19,10.37ZM504.54,22.99c1.13,0,2.09.4,2.89,1.19s1.19,1.75,1.19,2.89-.4,2.09-1.19,2.89-1.75,1.19-2.89,1.19-2.09-.4-2.89-1.19-1.19-1.75-1.19-2.89.4-2.09,1.19-2.89,1.75-1.19,2.89-1.19Z" fill="#dc2727"/><path d="M525.57,54.74h-8.5c-2.44,0-4.43-.86-5.96-2.58-1.53-1.72-2.3-3.94-2.3-6.68,0-3.65,1.26-6.83,3.78-9.52s5.48-4.04,8.88-4.04c2.3,0,4.18.64,5.62,1.93s2.17,2.97,2.17,5.04c0,1.45-.36,2.63-1.08,3.56-.72.93-1.65,1.39-2.78,1.39-1.8,0-2.7-.84-2.7-2.52v-.64c.02-.21.03-.42.03-.62,0-1.37-.67-2.05-2.02-2.05-1.27,0-2.43.67-3.47,2.02s-1.57,2.85-1.57,4.51c0,1.39.42,2.37,1.27,2.94.85.58,2.29.86,4.32.86h5.54c2.48,0,3.72.87,3.72,2.61,0,1.17-.44,2.09-1.33,2.77s-2.09,1.01-3.62,1.01Z" fill="#dc2727"/><path d="M551.62,48.36h3.22c2.46,0,3.69.86,3.69,2.58,0,1.19-.44,2.12-1.32,2.8s-2.09,1.01-3.63,1.01h-3.75c-1.68,0-2.82-.65-3.43-1.96-1.46,1.31-2.88,1.96-4.25,1.96h-3.34c-2.15,0-3.88-.77-5.2-2.3-1.32-1.53-1.98-3.54-1.98-6.02,0-3.75,1.29-7.1,3.88-10.06s5.51-4.44,8.77-4.44c2.5,0,4.33.87,5.48,2.61.98-1.46,2.26-2.2,3.84-2.2.86,0,1.58.27,2.15.82.58.55.86,1.22.86,2.02,0,.55-.16,1.2-.47,1.96l-.32.79-4.22,10.43ZM540.99,48.5h.73c1.6,0,2.67-.65,3.19-1.96l2.05-5.07c.27-.66.41-1.22.41-1.67,0-.53-.26-.99-.78-1.38-.52-.39-1.14-.59-1.86-.59-1.43,0-2.81.83-4.16,2.49-1.35,1.66-2.02,3.38-2.02,5.16,0,2.01.81,3.02,2.43,3.02Z" fill="#dc2727"/></g><g id="b"><path d="M645.74,22.42c0,13.42-4.9,25.3-17.4,30.24-4.6,1.82-12.83,2.95-15.67,2.95-3,0-10.92-1.05-14.77-2.62-14.26-5.8-19.8-21.53-17.95-30.06,1.75-8.1,15.44.21,32.77.21,17.33,0,33.02-9.91,33.02-.73Z" fill="#dc2727"/><path d="M630.96,58.72c-.05.25-.11.41-.2.51-1.76.43-4.57.04-7.09.17-8.17-.16-21.33.3-29.01-.17-.53-.32-.5-4.04-.25-5.39.1-.42.26-.59.51-.65,3.8-.06,31.69-.06,35.49,0,1.04.42.61,3.73.6,5.25l-.04.27Z" fill="#dc2727"/><rect x="622.61" y="10.47" width="6.53" height="26.13" transform="translate(109.92 -331.52) rotate(32.38)" fill="#dc2727"/><circle cx="634.75" cy="9.53" r="5.09" fill="#dc2727"/></g></svg>